<svg width="32" height="12" viewBox="0 0 32 12" fill="none" xmlns="http://www.w3.org/2000/svg">
<g clip-path="url(#clip0)">
<path d="M5.3647 0.473389H1.53389C0.514477 0.473389 0 1.06478 0 2.23618V8.5055C0 8.65905 0.0690084 8.75359 0.217685 8.75359H1.37568C1.51426 8.75359 1.60346 8.65905 1.60346 8.5055V8.26747C1.60346 7.6868 1.80825 7.37032 2.31711 7.3093H5.3647C6.48286 7.3093 6.9878 6.72998 6.9878 5.46404V2.31865C6.9878 1.05271 6.48286 0.473389 5.3647 0.473389ZM5.38602 4.93165C5.38602 5.61826 5.25586 5.75974 4.57251 5.75974H2.94941C2.26662 5.75974 1.83069 6.03197 1.6029 6.56436V2.69749C1.6029 2.1651 1.71175 2.02295 2.25596 2.02295H4.57251C5.25586 2.02295 5.38602 2.1651 5.38602 2.85104V4.93165Z" fill="white"/>
<path d="M10.6598 3.93933C9.779 3.93933 9.40254 4.47172 9.40254 5.37088V8.52901C9.40254 8.67116 9.34307 8.75364 9.20449 8.75364H8.15534C8.01676 8.75364 7.94775 8.67116 7.94775 8.52901V2.75654C7.94775 2.61439 8.01676 2.53125 8.15534 2.53125H9.03618C9.16522 2.53125 9.23423 2.61439 9.23423 2.75654V3.68789C9.40254 2.91948 9.88784 2.52856 10.749 2.52856H11.1053C11.2338 2.52856 11.3028 2.61171 11.3028 2.75386V3.71471C11.3028 3.86826 11.2338 3.93933 11.1053 3.93933H10.6598Z" fill="white"/>
<path d="M17.489 7.06193C17.489 8.23332 17.0536 8.75364 16.0146 8.75364H13.4411C12.4115 8.75364 11.9661 8.23332 11.9661 7.06193V4.22431C11.9661 3.05358 12.4115 2.53259 13.4411 2.53259H16.0146C17.0536 2.53259 17.489 3.05358 17.489 4.22431V7.06193ZM16.0342 4.67288C16.0342 4.05735 15.9355 3.93934 15.3217 3.93934H14.1435C13.5202 3.93934 13.4209 4.05735 13.4209 4.67288V6.61268C13.4209 7.22755 13.5202 7.34623 14.1435 7.34623H15.3217C15.9355 7.34623 16.0342 7.22755 16.0342 6.61268V4.67288Z" fill="white"/>
<path d="M18.9537 3.93928H18.4583C18.3293 3.93928 18.2603 3.86821 18.2603 3.71466V2.75649C18.2603 2.61434 18.3293 2.5312 18.4583 2.5312H18.9531V1.76279C18.9537 0.591395 19.4682 0 20.4876 0H21.7051C21.8436 0 21.9031 0.083144 21.9031 0.224623V1.18279C21.9031 1.33701 21.8436 1.40741 21.7051 1.40741H21.0621C20.5173 1.40741 20.4085 1.54956 20.4085 2.08195V2.5312H21.7051C21.8436 2.5312 21.9031 2.61434 21.9031 2.75649V3.71466C21.9031 3.86821 21.8436 3.93928 21.7051 3.93928H20.4085V8.52897C20.4085 8.67112 20.3395 8.75359 20.2009 8.75359H19.1517C19.0132 8.75359 18.9537 8.67112 18.9537 8.52897V3.93928Z" fill="white"/>
<path d="M22.9921 3.93928H22.4978C22.3693 3.93928 22.3003 3.86821 22.3003 3.71466V2.75649C22.3003 2.61434 22.3693 2.5312 22.4978 2.5312H22.9932V1.76279C22.9921 0.591395 23.5077 0 24.526 0H25.7434C25.882 0 25.9415 0.083144 25.9415 0.224623V1.18279C25.9415 1.33701 25.882 1.40741 25.7434 1.40741H25.0999C24.5557 1.40741 24.4468 1.54956 24.4468 2.08195V2.5312H25.7434C25.882 2.5312 25.9415 2.61434 25.9415 2.75649V3.71466C25.9415 3.86821 25.882 3.93928 25.7434 3.93928H24.4468V8.52897C24.4468 8.67112 24.3773 8.75359 24.2387 8.75359H23.1895C23.051 8.75359 22.9921 8.67112 22.9921 8.52897V3.93928Z" fill="white"/>
<path d="M30.3654 11.1668H28.2076C27.2381 11.1668 26.8224 10.7176 26.8224 9.6052V9.48719C26.8195 9.45544 26.8226 9.42333 26.8316 9.39323C26.8405 9.36314 26.855 9.33583 26.874 9.31335C26.8929 9.29087 26.9159 9.27378 26.9412 9.26337C26.9664 9.25295 26.9933 9.24947 27.0199 9.25318H28.0297C28.1683 9.25318 28.2373 9.33632 28.2373 9.48987V9.54887C28.2373 9.78557 28.3467 9.88011 28.5644 9.88011H29.8116C30.4052 9.88011 30.5539 9.70309 30.5539 9.09963V7.23358C30.3261 7.76597 29.8907 8.0382 29.2074 8.0382H28.1975C27.168 8.0382 26.7124 7.51788 26.7124 6.34649V2.75655C26.7111 2.72555 26.7153 2.69457 26.7249 2.66573C26.7346 2.6369 26.7493 2.61089 26.7681 2.58948C26.7869 2.56808 26.8094 2.5518 26.8339 2.54175C26.8585 2.5317 26.8846 2.52812 26.9104 2.53125H27.9697C28.0982 2.53125 28.1677 2.6144 28.1677 2.75655V5.9006C28.1677 6.51546 28.2766 6.63414 28.8904 6.63414H29.6427C30.2958 6.63414 30.5533 6.3143 30.5533 5.6639V2.75655C30.5533 2.6144 30.6223 2.53125 30.7514 2.53125H31.8112C31.8365 2.52833 31.8621 2.53215 31.886 2.54245C31.91 2.55275 31.9317 2.56926 31.9497 2.59081C31.9677 2.61235 31.9814 2.63839 31.99 2.66705C31.9985 2.69571 32.0016 2.72627 31.9991 2.75655V9.28603C31.9986 10.5272 31.4442 11.1668 30.3654 11.1668Z" fill="white"/>
</g>
<defs>
<clipPath id="clip0">
<rect width="32" height="11.1912" fill="white"/>
</clipPath>
</defs>
</svg>
