<svg width="120" height="120" viewBox="0 0 120 120" fill="none" xmlns="http://www.w3.org/2000/svg">
<path d="M15 18H42C46.7739 18 51.3523 19.9666 54.7279 23.4673C58.1036 26.968 60 31.7159 60 36.6666V102C60 98.2869 58.5777 94.726 56.0459 92.1005C53.5142 89.4749 50.0804 88 46.5 88H15V18Z" stroke="white" stroke-width="6" stroke-linecap="round" stroke-linejoin="round"/>
<path d="M105 18H78C73.2261 18 68.6477 19.9666 65.2721 23.4673C61.8964 26.968 60 31.7159 60 36.6666V102C60 98.2869 61.4223 94.726 63.9541 92.1005C66.4858 89.4749 69.9196 88 73.5 88H105V18Z" stroke="white" stroke-width="6" stroke-linecap="round" stroke-linejoin="round"/>
</svg>
