<svg width="20" height="21" viewBox="0 0 20 21" fill="none" xmlns="http://www.w3.org/2000/svg">
<g clip-path="url(#clip0)">
<path d="M10.0025 0.187012H9.9975C4.48375 0.187012 0 4.67201 0 10.187C0 12.3745 0.705 14.402 1.90375 16.0483L0.6575 19.7633L4.50125 18.5345C6.0825 19.582 7.96875 20.187 10.0025 20.187C15.5162 20.187 20 15.7008 20 10.187C20 4.67326 15.5162 0.187012 10.0025 0.187012Z" fill="#4CAF50"/>
<path d="M15.8211 14.3082C15.5798 14.9895 14.6223 15.5545 13.8586 15.7195C13.3361 15.8307 12.6536 15.9195 10.3561 14.967C7.41732 13.7495 5.52482 10.7632 5.37732 10.5695C5.23607 10.3757 4.18982 8.98824 4.18982 7.55324C4.18982 6.11824 4.91857 5.41949 5.21232 5.11949C5.45357 4.87324 5.85232 4.76074 6.23482 4.76074C6.35857 4.76074 6.46982 4.76699 6.56982 4.77199C6.86357 4.78449 7.01107 4.80199 7.20482 5.26574C7.44607 5.84699 8.03357 7.28199 8.10357 7.42949C8.17482 7.57699 8.24607 7.77699 8.14607 7.97074C8.05232 8.17074 7.96982 8.25949 7.82232 8.42949C7.67482 8.59949 7.53482 8.72949 7.38732 8.91199C7.25232 9.07074 7.09982 9.24074 7.26982 9.53449C7.43982 9.82199 8.02732 10.7807 8.89232 11.5507C10.0086 12.5445 10.9136 12.862 11.2373 12.997C11.4786 13.097 11.7661 13.0732 11.9423 12.8857C12.1661 12.6445 12.4423 12.2445 12.7236 11.8507C12.9236 11.5682 13.1761 11.5332 13.4411 11.6332C13.7111 11.727 15.1398 12.4332 15.4336 12.5795C15.7273 12.727 15.9211 12.797 15.9923 12.9207C16.0623 13.0445 16.0623 13.6257 15.8211 14.3082Z" fill="#FAFAFA"/>
</g>
<defs>
<clipPath id="clip0">
<rect width="20" height="20" fill="white" transform="translate(0 0.187012)"/>
</clipPath>
</defs>
</svg>
